# xmcd CD database file
#
# Track frame offsets:
#	150
#	27840
#	60605
#	86015
#	119765
#	133570
#	159235
#	172772
#	203652
#	216765
#	246032
#	265277
#	287112
#	303552
#
# Disc length: 4344 seconds
#
# Revision: 0
# Processed by: cddbd v1.4PL0 Copyright (c) Steve Scherf et al.
# Submitted via: CDex 1.50Beta7
#
DISCID=c310f60e
DTITLE=Jack McDuff - The Soulful Drums, Hot Barbecue
DYEAR=1965
DGENRE=Jazz
TTITLE0=Soulful Drums
TTITLE1=Two Bass Hit
TTITLE2=Greasy Drums
TTITLE3=Moohah the DJ
TTITLE4=Moanin' Bench
TTITLE5=My Three Sons
TTITLE6=Hot Barbeque
TTITLE7=The Party's Over
TTITLE8=Briar Patch
TTITLE9=Hippy Dip
TTITLE10=601 and a Half North Poplar
TTITLE11=Cry Me a River
TTITLE12=The Three Day Thang
TTITLE13=Redwood City
EXTD=YEAR: 1965
EXTT0=
EXTT1=
EXTT2=
EXTT3=
EXTT4=
EXTT5=
EXTT6=
EXTT7=
EXTT8=
EXTT9=
EXTT10=
EXTT11=
EXTT12=
EXTT13=
PLAYORDER=
